<svg xmlns="http://www.w3.org/2000/svg" width="1024" height="1024" viewBox="0 0 2048 2048"><defs><linearGradient id="b" x1="1685.8" x2="930.442" y1="1485.71" y2="1083.17" gradientUnits="userSpaceOnUse"><stop offset="0" stop-color="#0cc87d"/><stop offset="1" stop-color="#07a3d1"/></linearGradient><linearGradient id="a" x1="1117.37" x2="312.383" y1="1101.14" y2="627.086" gradientUnits="userSpaceOnUse"><stop offset="0" stop-color="#04a8ca"/><stop offset="1" stop-color="#1d65ff"/></linearGradient></defs><path fill="url(#a)" d="M722.654 1706.07c-28.681.11-57.417.31-86.092.04-66.253-.62-131.96-32.19-180.13-76.57a282.45 282.45 0 0 1-89.721-196.8c-.807-19.09-.348-40.62-.338-59.83l.011-104.78.045-370.886-.037-201.043c-.026-45.873-3.169-104.706 5.471-148.367 19.491-98.49 111.252-185.366 213.621-187.503 46.178-.963 93.85.163 140.472.014l338.114-.22 227.73.129 79.09.02c19.53-.047 49.47-2.374 68.39 4.591 11.74 5.894 16.79 21.284 16.75 33.12-.14 43.655 1.39 87.761-.61 131.237-.55 12.066-16.32 23.557-28.65 24.116-25.59 1.159-51.66.552-77.5.446l-138.6.006-529.838.072c-38.572.133-66.849 4.358-95.539 32.742-35.771 35.39-29.25 87.624-29.012 135.181 9.002-1.133 42.831-.979 53.494-.742 23.186.515 58.759-1.52 80.585 1.423a92.4 92.4 0 0 1 29.208 9.232c31.091 16.051 41.632 51.555 54.131 81.743l37.107 89.493 70.098 168.216c9.641 23.5 23.508 53.6 31.067 76.74 10.878-30.45 25.019-63.62 37.237-93.9l54.622-135.923 37.09-91.331c17.64-43.738 31.2-91.541 83.4-101.94 29.05-5.788 71-3.495 101.22-3.495l169.74.09 164.05-.017c13.76.024 27.78-.253 41.52.107 23.52.617 49.59-2.977 68.28 14.377 15.79 14.664 17.53 31.469 17.05 52.017-1.08 18.477 1.89 69.13-2.19 84.586a47.5 47.5 0 0 1-12.39 21.632c-15.94 16.026-33.74 14.855-54.69 15.002-16.99.12-34.01-.024-51.01-.046l-229.48.008-58.09-.083c-14.63-.025-30.53-.657-45.04 1.45-13.73 1.992-27.04 11.268-35.84 21.71-3.46 4.099-6.82 8.392-9.15 13.276-11.47 25.653-21.89 52.257-32.67 78.19L1082 1205.03l-87.406 217.56c-11.842 29.68-26.676 64.15-37.301 93.55l296.487.37 81.46.07c46.47.02 89.98 3.04 125.78-32.8 29.49-29.52 33.56-60.86 32.67-100.68.62-57.62-1.23-116.78.35-173.87-22.99 1.41-56.06.4-79.86.39l-153.32-.04c-26.99-.02-59.12-.81-85.66.35l74.59-171.38c143.75-1.38 288.45 1.4 432.18-.23l-.09 259.71.08 89.9c.02 19.75.5 40.45-.3 60.09-4.91 120.02-105.17 227.9-220.75 252.9-35 7.57-78.95 5.33-115.34 5.3l-135.72-.04-479.353.14c-2.616-.03-5.23-.11-7.843-.25m15.594-189.44c9.811-.99 36.754-.32 47.578-.33 33.354.2 66.709.12 100.061-.25-24.952-59.98-53.412-119.42-78.401-179.39-14.021-29.19-27.751-61.8-41.14-91.67l-98.636-221.85-73.709-164.812c-11.781-26.615-27.687-60.336-37.802-87.343a25394 25394 0 0 0-.057 436.235l-.045 131.65c-.015 52.96-7.042 104.22 32.805 145.02 42.658 43.67 96.072 29.55 149.346 32.74"/><path fill="url(#b)" d="m1395.28 721.391 164.05-.017c13.76.024 27.78-.253 41.52.107c23.52.617 49.59-2.977 68.28 14.377 15.79 14.664 17.53 31.469 17.05 52.017-1.08 18.477 1.89 69.13-2.19 84.586a47.5 47.5 0 0 1-12.39 21.632c-15.94 16.026-33.74 14.855-54.69 15.002-16.99.12-34.01-.024-51.01-.046l-229.48.008-58.09-.083c-14.63-.025-30.53-.657-45.04 1.45-13.73 1.992-27.04 11.268-35.84 21.71-3.46 4.099-6.82 8.392-9.15 13.276-11.47 25.653-21.89 52.257-32.67 78.19L1082 1205.03l-87.406 217.56c-11.842 29.68-26.676 64.15-37.301 93.55l296.487.37 81.46.07c46.47.02 89.98 3.04 125.78-32.8 29.49-29.52 33.56-60.86 32.67-100.68.62-57.62-1.23-116.78.35-173.87-22.99 1.41-56.06.4-79.86.39l-153.32-.04c-26.99-.02-59.12-.81-85.66.35l74.59-171.38c143.75-1.38 288.45 1.4 432.18-.23l-.09 259.71.08 89.9c.02 19.75.5 40.45-.3 60.09-4.91 120.02-105.17 227.9-220.75 252.9-35 7.57-78.95 5.33-115.34 5.3l-135.72-.04-479.353.14c-2.616-.03-5.23-.11-7.843-.25-5.47-5.01-13.685-1.69-20.087-3.61-6.092-1.83-7.509-5.4-10.189-10.39-.308-.57-6.384-1.99-7.853-2.37l-1.143-2.9c7.559-14.49 3.158-36.45 4.86-51.66 1.212-10.83 14.349-23.4 11.611-38.96-.807-4.59 3.493-23.72 4.166-29.44.98-8.35 15.495-18.47 16.15-27.32.391-4.23-.142-9.42 2.17-12.49 3.44.66 22.244-2.61 25.013-5.9-.591-2.86.096-1.63-2.5-3.6-2.657.09-4.152.41-6.604-.8 9.811-.99 train.webp
36.754-.32 47.578-.33 33.354.2 66.709.12 100.061-.25-24.952-59.98-53.412-119.42-78.401-179.39 2.731 2.69 1.282 2.2 4.415 3.02l1.071-1.49c-.013-4.85-.38-6.34-1.335-11.19.876-1.42 1.508-2.4 2.498-3.77l.821-1.12c-1.103-3.22-.964-12.81-.102-16.08.863-.3 4.791-1.83 5.05-2.22 5.111-7.41 5.67-18.54 9.985-26.09 16.121-28.22 25.829-60.21 49.366-83.38 2.342-2.3 2.945-16.21 6.566-19.6 5.96-5.57 14.636-5.17 20.059-11.33 12.208-12.96 25.561-25.9 36.872-39.64 1.441-1.75 6.264-11.21 8.572-14.76l31.828-48.97c3.058-4.75 11.16-6.86 14.836-10.45 6.172-6.02 8.512-9.05 16.952-10.43 2.26-1.79 2.95-13.16 5.11-14.94 6.16-5.06 10.08-16.88 17.63-17.81 4.88-1.42 4.28-7.877 9.17-12.46 18.14-16.988 35.56-36.081 52.69-54.1 11.47-12.062 11.53-22.096 28.2-31.697 12.09-6.964 23.48-31.114 31.17-43.066 1.96-3.878 9.46-12.144 11.12-15.486 6.64-13.433 11.07-12.373 21.81-18.617 7.56-4.393 6.14-25.22 7.32-33.386 1.37-9.54 8.27-14.24 13.06-22.083 5.38-10.539 10.08-28.96 11.02-40.74 5.11-1.811 10-2.829 14.99-4.253 5.08-1.449 5.26.828 8.76-1.545l-.03-1.388-1.73-.867 1.02-.633.52 1.346-.1-1.451c11.99-2.466 51.52-1.547 66.16-1.527l102.19-.274c4.69.013 25.19.952 27.67-.363-5.36-4.569-41.55 1.675-47.41-2.429"/><path fill="#0badbf" d="m1567.94 414.457 1.26.341c2.71 2.708 4.17 12.714 5.82 17.51 6.36 19.166 17.91 34.174 36.82 42.272 7.56 4.104 23.83 6.275 26.36 16.005 2.15 8.281-20.01 13.298-26.64 16.813-14.98 7.925-23.34 14.403-31.24 29.723-5.67 10.986-5.28 21.625-11.64 31.614-2.16 3.334-8.54 2.797-12.26 2.813-3.61-4.501-4.37-8.024-5.82-13.612-4.48-17.248-8.25-26.147-21.69-38.586a69 69 0 0 0-15.89-11.113c-4-1.999-8.48-3.357-12.67-4.915-41.16-15.318 6.65-24.302 19.35-31.965 23.22-14.01 28.79-32.315 34.84-56.338zM1639.54 574.113c17.44-.256 38.97-1.427 56.3.838 14.82 1.937 9.05 45.897 9.59 56.153.36 6.734-2.3 12.345-8.29 15.787-11.22 1.515-54.65 3.538-63.05-2.828-6.19-11.675-5.07-47.174-2.67-61.135.8-4.644 4.35-6.606 8.12-8.815"/><path fill="#0ca2d0" d="M1664.66 357.228c7.14-.223 34.57-2.963 38.08 3.833 4.74 9.181 3.47 26.77 1.84 36.999-.67 4.223-2.74 5.018-5.88 6.871l-10.42.624c-6.33.359-22.94 1.991-27.26-3.245-5.19-6.273-3.47-26.515-2.76-34.562.52-5.751 2.08-7.376 6.4-10.52"/></svg>